STARTFONT 2.1
FONT -Monotype-Century Gothic-Regular-I-Normal--36-360-75-75-P-184-iso8859-9
SIZE 36 75 75
FONTBOUNDINGBOX 50 45 -7 -8

STARTPROPERTIES 24
FOUNDRY "Monotype"
FAMILY_NAME "Century Gothic"
WEIGHT_NAME "Regular"
SLANT "I"
SETWIDTH_NAME "Normal"
ADD_STYLE_NAME ""
PIXEL_SIZE 36
POINT_SIZE 360
RESOLUTION_X 75
RESOLUTION_Y 75
SPACING "P"
AVERAGE_WIDTH 184
CHARSET_REGISTRY "iso8859"
CHARSET_ENCODING "9"
FACE_NAME "Century Gothic Italic ISO Latin5"
_DEC_DEVICE_FONTNAMES "PS=centurygothic-it-lat5"
COPYRIGHT "Copyright (c) 1993 Monotype Typography Ltd."
CAP_HEIGHT 32
X_HEIGHT 23
WEIGHT 10
QUAD_WIDTH 26
DEFAULT_CHAR 160
FONT_DESCENT 8
FONT_ASCENT 37
ENDPROPERTIES

CHARS 191

STARTCHAR space
ENCODING 32
SWIDTH 277 0
DWIDTH 11 0
BBX 0 0 0 0
BITMAP
ENDCHAR

STARTCHAR exclam
ENCODING 33
SWIDTH 295 0
DWIDTH 11 0
BBX 7 28 1 0
BITMAP
06
0E
0E
0E
0E
0C
0C
0C
1C
1C
1C
1C
18
18
18
38
38
38
38
38
30
00
00
20
78
F8
70
30
ENDCHAR

STARTCHAR quotedbl
ENCODING 34
SWIDTH 309 0
DWIDTH 12 0
BBX 10 9 2 19
BITMAP
E1C0
E1C0
E1C0
C1C0
C1C0
C1C0
C1C0
C0C0
C080
ENDCHAR

STARTCHAR numbersign
ENCODING 35
SWIDTH 720 0
DWIDTH 27 0
BBX 21 28 3 0
BITMAP
00C0C0
00C0C0
01C0C0
0180C0
018180
018180
018180
018180
018180
3FFFF8
3FFFF8
030300
030300
030300
030300
030300
060300
FFFFF0
FFFFF0
060600
060600
060600
0E0600
0C0600
0C0C00
0C0C00
0C0C00
0C0C00
ENDCHAR

STARTCHAR dollar
ENCODING 36
SWIDTH 554 0
DWIDTH 21 0
BBX 19 36 1 -6
BITMAP
001C00
001800
007C00
03FF00
07FF80
0F3BE0
0E39C0
1C3880
1C3000
1C3000
1C3000
0E7000
077000
07F000
01F000
00FC00
007E00
006F00
00E780
00E380
00E1C0
00C1C0
00C1C0
40C1C0
E0C380
F1C380
7DCF00
3FFE00
0FFC00
03E000
018000
018000
038000
038000
038000
030000
ENDCHAR

STARTCHAR percent
ENCODING 37
SWIDTH 775 0
DWIDTH 29 0
BBX 27 29 1 -1
BITMAP
07E003E0
0FFFFFC0
1C3FF380
381C0300
700C0600
600C0C00
600C1800
600C3000
601C7000
70386000
3870C000
1FE18000
0FC30000
00060000
000E0000
000C0000
00183F00
00307FC0
0060E1C0
00C180E0
01C38060
01830060
03030060
060300E0
0C0380C0
1801C3C0
3800FF00
30007E00
E0000000
ENDCHAR

STARTCHAR ampersand
ENCODING 38
SWIDTH 757 0
DWIDTH 29 0
BBX 25 27 2 0
BITMAP
003E0000
00FF0000
01FF8000
03C3C000
0381C000
0381C000
0381C000
03838000
01C78000
01EF0000
00FE0000
00F80000
01F80000
07D80000
0F1C0000
3E0E0000
380F0200
70078E00
F0039F00
E001FE00
E000F800
E003F000
F00FD800
783F3C00
3FFE1E00
1FF80E00
07C00780
ENDCHAR

STARTCHAR quoteright
ENCODING 39
SWIDTH 351 0
DWIDTH 13 0
BBX 5 10 5 18
BITMAP
78
70
70
70
70
30
30
60
E0
40
ENDCHAR

STARTCHAR parenleft
ENCODING 40
SWIDTH 369 0
DWIDTH 14 0
BBX 10 37 3 -7
BITMAP
01C0
0380
0380
0700
0700
0E00
0E00
0C00
1C00
1C00
1800
3800
3800
3800
3000
7000
7000
7000
7000
6000
6000
E000
E000
E000
E000
E000
E000
E000
E000
E000
E000
E000
E000
6000
7000
7000
7000
ENDCHAR

STARTCHAR parenright
ENCODING 41
SWIDTH 369 0
DWIDTH 14 0
BBX 10 37 -1 -7
BITMAP
0380
0380
0180
01C0
01C0
01C0
01C0
01C0
01C0
01C0
01C0
01C0
01C0
01C0
01C0
01C0
01C0
0180
0380
0380
0380
0380
0300
0700
0700
0700
0600
0E00
0E00
1C00
1C00
1C00
3800
3800
7000
7000
E000
ENDCHAR

STARTCHAR asterisk
ENCODING 42
SWIDTH 425 0
DWIDTH 16 0
BBX 13 13 2 15
BITMAP
0700
0300
4308
6338
F278
1FE0
0780
0FC0
7AF0
F338
4310
0300
0700
ENDCHAR

STARTCHAR plus
ENCODING 43
SWIDTH 606 0
DWIDTH 23 0
BBX 19 19 2 4
BITMAP
00E000
00E000
00E000
00E000
00E000
00E000
00E000
00E000
FFFFE0
FFFFE0
FFFFE0
00E000
00E000
00E000
00E000
00E000
00E000
00E000
00E000
ENDCHAR

STARTCHAR comma
ENCODING 44
SWIDTH 277 0
DWIDTH 11 0
BBX 7 8 -1 -3
BITMAP
08
0E
1C
38
38
70
E0
60
ENDCHAR

STARTCHAR minus
ENCODING 45
SWIDTH 606 0
DWIDTH 23 0
BBX 19 3 2 12
BITMAP
FFFFE0
FFFFE0
FFFFE0
ENDCHAR

STARTCHAR period
ENCODING 46
SWIDTH 277 0
DWIDTH 11 0
BBX 5 5 1 0
BITMAP
70
F8
F8
70
30
ENDCHAR

STARTCHAR slash
ENCODING 47
SWIDTH 437 0
DWIDTH 17 0
BBX 15 32 1 -4
BITMAP
001E
001C
001C
0038
0038
0038
0070
0070
0070
00E0
00E0
00C0
01C0
01C0
0380
0380
0380
0700
0700
0700
0E00
0E00
0E00
1C00
1C00
1800
3800
3800
7000
7000
7000
E000
ENDCHAR

STARTCHAR zero
ENCODING 48
SWIDTH 554 0
DWIDTH 21 0
BBX 18 28 1 0
BITMAP
00F800
03FE00
07FF00
0F0700
1E0380
1C0380
3801C0
3801C0
3001C0
7001C0
7001C0
7001C0
6001C0
E001C0
E001C0
E00180
E00380
E00380
E00380
E00700
E00700
600600
700E00
701C00
383C00
3FF800
1FE000
078000
ENDCHAR

STARTCHAR one
ENCODING 49
SWIDTH 554 0
DWIDTH 21 0
BBX 7 28 7 0
BITMAP
7E
7E
FE
0E
0E
0C
0C
1C
1C
1C
1C
1C
18
18
18
38
38
38
38
38
30
30
70
70
70
70
70
70
ENDCHAR

STARTCHAR two
ENCODING 50
SWIDTH 554 0
DWIDTH 21 0
BBX 19 28 -1 0
BITMAP
007C00
01FF00
03FF80
0783C0
0E01C0
0E00E0
1C00E0
1C00E0
1C00E0
0000E0
0001C0
0003C0
000380
000700
000F00
001E00
003C00
007800
00F000
01E000
01C000
038000
070000
0E0000
1E0000
3FFFC0
7FFF80
FFFF80
ENDCHAR

STARTCHAR three
ENCODING 51
SWIDTH 554 0
DWIDTH 21 0
BBX 19 28 0 0
BITMAP
007C00
01FF00
03FF80
0783C0
0701C0
0E00E0
0000E0
0000E0
0000E0
0001C0
0003C0
001F80
00FC00
00FE00
000F00
000780
0003C0
0001C0
0001C0
0001C0
E001C0
600380
700380
700780
3C1F00
1FFE00
0FF800
03E000
ENDCHAR

STARTCHAR four
ENCODING 52
SWIDTH 554 0
DWIDTH 21 0
BBX 19 28 -1 0
BITMAP
000040
000080
000180
000380
000380
000780
000F80
001D80
003B00
003300
007300
00E700
01C700
018700
038700
070700
0E0600
1C0600
180E00
3FFFE0
7FFFE0
FFFFE0
000E00
000C00
000C00
000C00
001C00
001C00
ENDCHAR

STARTCHAR five
ENCODING 53
SWIDTH 554 0
DWIDTH 21 0
BBX 20 28 0 0
BITMAP
007FF0
00FFF0
00FFE0
00C000
01C000
01C000
018000
038000
038000
03F800
07FE00
061F00
000780
000380
000380
0001C0
0001C0
0001C0
0001C0
0001C0
0001C0
600380
F00380
700700
3C1F00
1FFE00
0FF800
03E000
ENDCHAR

STARTCHAR six
ENCODING 54
SWIDTH 554 0
DWIDTH 21 0
BBX 18 28 0 0
BITMAP
000800
001E00
001C00
003800
007000
00E000
01E000
03C000
038000
060000
0FF800
1FFE00
3E1F00
380700
700380
700180
E001C0
E001C0
E001C0
E001C0
E001C0
E00380
700380
780700
3C1F00
1FFE00
0FF800
01E000
ENDCHAR

STARTCHAR seven
ENCODING 55
SWIDTH 554 0
DWIDTH 21 0
BBX 20 28 1 0
BITMAP
3FFFF0
3FFFE0
3FFDC0
000380
000380
000700
000700
000E00
001C00
001C00
003800
007000
007000
00E000
01C000
01C000
038000
078000
070000
0E0000
0E0000
1C0000
380000
380000
700000
E00000
E00000
400000
ENDCHAR

STARTCHAR eight
ENCODING 56
SWIDTH 554 0
DWIDTH 21 0
BBX 19 28 0 0
BITMAP
007C00
01FF00
07FF80
0703C0
0E01E0
1C00E0
1C00E0
1C00E0
1C00C0
0E01C0
0F0780
07FF00
03FC00
0FFF00
1E0780
3801C0
7001C0
7000C0
E000E0
E000E0
E000E0
E001C0
6001C0
700380
3C0F80
3FFF00
0FFC00
03E000
ENDCHAR

STARTCHAR nine
ENCODING 57
SWIDTH 554 0
DWIDTH 21 0
BBX 18 28 1 0
BITMAP
01F000
0FFC00
1FFE00
3C0F00
780780
700380
7001C0
E001C0
E001C0
E001C0
E001C0
E001C0
700380
700380
380700
3E1F00
0FFE00
07FC00
003800
007000
00F000
01E000
01C000
038000
070000
1E0000
0C0000
040000
ENDCHAR

STARTCHAR colon
ENCODING 58
SWIDTH 277 0
DWIDTH 11 0
BBX 7 21 1 0
BITMAP
1C
3E
3E
1C
08
00
00
00
00
00
00
00
00
00
00
00
20
F8
F8
70
30
ENDCHAR

STARTCHAR semicolon
ENCODING 59
SWIDTH 277 0
DWIDTH 11 0
BBX 9 24 -1 -3
BITMAP
0700
0F80
0F80
0700
0200
0000
0000
0000
0000
0000
0000
0000
0000
0000
0000
0000
0800
1E00
1C00
3800
3000
7000
E000
4000
ENDCHAR

STARTCHAR less
ENCODING 60
SWIDTH 606 0
DWIDTH 23 0
BBX 19 20 2 4
BITMAP
000020
000060
0003E0
000FC0
003F00
00FC00
03F000
1FC000
7F0000
F80000
F00000
FC0000
3F0000
0FC000
03F800
007E00
001F80
0007E0
0001E0
000060
ENDCHAR

STARTCHAR equal
ENCODING 61
SWIDTH 606 0
DWIDTH 23 0
BBX 19 11 2 8
BITMAP
FFFFE0
FFFFE0
FFFFE0
000000
000000
000000
000000
000000
FFFFE0
FFFFE0
FFFFE0
ENDCHAR

STARTCHAR greater
ENCODING 62
SWIDTH 606 0
DWIDTH 23 0
BBX 19 20 2 4
BITMAP
800000
C00000
F80000
7E0000
1F8000
07E000
01F800
007F00
001FC0
0003E0
0001E0
0007E0
001F80
007E00
03F800
0FC000
3F0000
FC0000
F00000
C00000
ENDCHAR

STARTCHAR question
ENCODING 63
SWIDTH 591 0
DWIDTH 22 0
BBX 16 29 4 0
BITMAP
03E0
0FF8
3FFE
380E
7007
E007
E007
E007
000E
001E
007C
03F8
0FC0
3F00
7800
7000
E01C
E038
E038
78F0
3FE0
1FC0
0000
0000
0400
1E00
1F00
1E00
0C00
ENDCHAR

STARTCHAR at
ENCODING 64
SWIDTH 867 0
DWIDTH 33 0
BBX 28 29 2 0
BITMAP
001FC000
00FFF800
03C01E00
07000300
0C000180
180000C0
30000060
200F9C20
603FD830
4070E830
C0E07810
C1C03810
81C03810
83803010
83803030
83803030
C3803020
C3807060
C1C070C0
41C0E180
61E1E300
30FF7E00
303C7000
180000E0
0E000180
07000700
01E01E00
007FF800
000FC000
ENDCHAR

STARTCHAR A
ENCODING 65
SWIDTH 740 0
DWIDTH 28 0
BBX 26 28 -1 0
BITMAP
00008000
00018000
0001C000
0003C000
0003C000
0007E000
00076000
000EE000
001E7000
001C7000
00387000
00383800
00703800
00703800
00E01C00
01C01C00
01FFFC00
03FFFE00
03FFFE00
07000E00
07000700
0E000700
1E000700
1C000380
38000380
38000380
700001C0
F00001C0
ENDCHAR

STARTCHAR B
ENCODING 66
SWIDTH 574 0
DWIDTH 22 0
BBX 19 28 1 0
BITMAP
1FF800
1FFE00
1FFF00
1C0780
1803C0
1801C0
3801C0
3801C0
3801C0
380380
380780
380F00
3FFE00
3FFC00
7FFF00
700780
7001C0
7000C0
7000E0
7000E0
7000E0
7000E0
E000E0
E001C0
E007C0
FFFF80
FFFF00
FFF800
ENDCHAR

STARTCHAR C
ENCODING 67
SWIDTH 813 0
DWIDTH 31 0
BBX 28 28 1 0
BITMAP
0007F000
003FFE00
00FFFF80
03F007E0
078001F0
0F000060
1E000020
3C000000
38000000
70000000
70000000
60000000
E0000000
E0000000
E0000000
E0000000
E0000000
E0000000
60000000
70000000
70000000
38000000
3C000100
1E000780
0FC01F80
03FFFE00
01FFF800
001FC000
ENDCHAR

STARTCHAR D
ENCODING 68
SWIDTH 744 0
DWIDTH 28 0
BBX 25 28 1 0
BITMAP
0FFE0000
0FFFC000
0FFFF000
1C00F800
1C003C00
1C001E00
1C000E00
1C000700
18000700
18000300
38000380
38000380
38000380
38000380
38000380
38000380
30000380
30000700
70000700
70000700
70000E00
70001E00
70003C00
60007800
6003F000
7FFFE000
FFFF8000
FFFC0000
ENDCHAR

STARTCHAR E
ENCODING 69
SWIDTH 536 0
DWIDTH 20 0
BBX 19 28 1 0
BITMAP
0FFFE0
1FFFC0
1FFFC0
1C0000
1C0000
1C0000
180000
180000
380000
380000
380000
380000
3FFF80
3FFF80
3FFF80
300000
700000
700000
700000
700000
700000
700000
600000
E00000
E00000
FFFE00
FFFE00
FFFE00
ENDCHAR

STARTCHAR F
ENCODING 70
SWIDTH 485 0
DWIDTH 18 0
BBX 17 28 1 0
BITMAP
0FFF80
1FFF80
1FFF00
1C0000
1C0000
1C0000
180000
180000
380000
380000
380000
380000
3FFE00
3FFE00
3FFE00
300000
700000
700000
700000
700000
700000
600000
600000
E00000
E00000
E00000
E00000
E00000
ENDCHAR

STARTCHAR G
ENCODING 71
SWIDTH 872 0
DWIDTH 33 0
BBX 29 28 1 0
BITMAP
000FE000
007FFC00
01FFFF00
03E00FC0
078003E0
0F0000F0
1C000078
3C000020
38000000
70000000
70000000
60000000
E0000000
E0000000
E000FFF8
E000FFF8
E000FFF8
E0000038
70000070
70000070
780000E0
3C0001E0
1E0003C0
0F000F80
07C03F00
03FFFE00
00FFF800
001F8000
ENDCHAR

STARTCHAR H
ENCODING 72
SWIDTH 683 0
DWIDTH 26 0
BBX 23 28 1 0
BITMAP
1C000E
1C000E
1C000E
1C000C
1C000C
1C001C
18001C
18001C
38001C
38001C
38001C
3FFFF8
3FFFF8
3FFFF8
300038
700038
700038
700038
700038
700030
700030
600070
600070
E00070
E00070
E00070
E00070
E00060
ENDCHAR

STARTCHAR I
ENCODING 73
SWIDTH 226 0
DWIDTH 9 0
BBX 6 28 1 0
BITMAP
1C
1C
1C
1C
1C
18
18
38
38
38
38
38
38
30
30
70
70
70
70
70
60
60
E0
E0
E0
E0
E0
E0
ENDCHAR

STARTCHAR J
ENCODING 74
SWIDTH 482 0
DWIDTH 18 0
BBX 15 28 0 0
BITMAP
0006
000E
000E
000E
000E
000E
000C
000C
000C
001C
001C
001C
001C
001C
0018
0018
0038
0038
0038
0038
0038
0030
0070
4070
F0F0
7FE0
3FC0
0F00
ENDCHAR

STARTCHAR K
ENCODING 75
SWIDTH 591 0
DWIDTH 22 0
BBX 21 28 1 0
BITMAP
1C0078
1C00F0
1C01E0
1C03C0
1C0F00
1C1E00
183C00
187800
38F000
39E000
3BC000
3F0000
3E0000
3E0000
370000
778000
73C000
71C000
70E000
707000
703800
603C00
601E00
E00F00
E00780
E00380
E001C0
E000E0
ENDCHAR

STARTCHAR L
ENCODING 76
SWIDTH 462 0
DWIDTH 18 0
BBX 15 28 1 0
BITMAP
0C00
1C00
1C00
1C00
1C00
1C00
1C00
1800
1800
3800
3800
3800
3800
3800
3800
3000
7000
7000
7000
7000
7000
7000
6000
6000
E000
FFFE
FFFE
FFFE
ENDCHAR

STARTCHAR M
ENCODING 77
SWIDTH 919 0
DWIDTH 35 0
BBX 31 28 0 0
BITMAP
00800002
00800002
01800006
01C0000E
01C0000E
01E0001E
03E0003E
03E0003E
03B0007E
07700076
073000EE
073801EE
063801CE
0E18038E
0E1C038E
0E1C070E
1C0C0E0E
1C0E0E0E
1C0E1C0E
18063C0E
3807380E
3807700E
3803B00E
7003E00E
7001C00E
7001C00E
6001800E
E000800E
ENDCHAR

STARTCHAR N
ENCODING 78
SWIDTH 740 0
DWIDTH 28 0
BBX 25 28 1 0
BITMAP
08000380
18000380
1C000380
1E000380
1E000380
1F000300
1B800300
1BC00700
19C00700
38E00700
38700700
38700700
38380600
381C0600
301E0600
300E0E00
70070E00
70078E00
70038E00
7001CE00
7000EC00
6000F400
60007C00
60003C00
E0003C00
E0001C00
E0000C00
E0000400
ENDCHAR

STARTCHAR O
ENCODING 79
SWIDTH 869 0
DWIDTH 33 0
BBX 30 28 1 0
BITMAP
0007F000
003FFE00
00FFFF80
03F007C0
07C001E0
0F0000F0
1E000070
3C000038
38000038
7000001C
7000001C
7000001C
E000001C
E000001C
E000001C
E000001C
E0000038
E0000038
E0000078
70000070
700000F0
380001E0
3C0003C0
1E000F80
0F803F00
07FFFC00
01FFF000
003F8000
ENDCHAR

STARTCHAR P
ENCODING 80
SWIDTH 592 0
DWIDTH 22 0
BBX 20 28 1 0
BITMAP
0FFE00
1FFF80
1FFFE0
1C01E0
1C0070
1C0070
1C0070
180070
380070
3800E0
3800E0
3803C0
3FFFC0
3FFF00
3FFC00
300000
700000
700000
700000
700000
700000
700000
600000
600000
E00000
E00000
E00000
E00000
ENDCHAR

STARTCHAR Q
ENCODING 81
SWIDTH 871 0
DWIDTH 33 0
BBX 30 28 1 0
BITMAP
0007F000
003FFE00
00FFFF80
03F007C0
07C001E0
0F0000F0
1E000070
3C000038
38000038
7000001C
7000001C
7000001C
E000001C
E000001C
E000001C
E000001C
E0000038
E0000038
E0007038
70003870
70001CF0
38000FE0
3C0007C0
1E000F80
0F803FC0
07FFFCE0
01FFF070
003F803C
ENDCHAR

STARTCHAR R
ENCODING 82
SWIDTH 607 0
DWIDTH 23 0
BBX 19 28 2 0
BITMAP
1FFC00
1FFF00
1FFF80
1C03C0
1800E0
1800E0
3800E0
3800E0
3800E0
3801C0
3801C0
300780
3FFF80
7FFE00
7FB800
71C000
71C000
70E000
707000
607000
603800
E03C00
E01C00
E00E00
E00E00
E00700
C00380
C003C0
ENDCHAR

STARTCHAR S
ENCODING 83
SWIDTH 498 0
DWIDTH 19 0
BBX 18 28 0 0
BITMAP
007800
01FE00
03FF00
070780
0E0380
0E01C0
0E0000
0E0000
0F0000
070000
038000
03C000
01E000
00F000
003800
001C00
000E00
000E00
000700
000700
000700
E00700
700700
700E00
383C00
3FFC00
0FF000
03C000
ENDCHAR

STARTCHAR T
ENCODING 84
SWIDTH 426 0
DWIDTH 16 0
BBX 17 28 1 0
BITMAP
FFFF80
FFFF80
FFFF00
018000
038000
038000
038000
038000
038000
038000
030000
070000
070000
070000
070000
070000
070000
060000
060000
0E0000
0E0000
0E0000
0E0000
0E0000
0E0000
0C0000
0C0000
1C0000
ENDCHAR

STARTCHAR U
ENCODING 85
SWIDTH 655 0
DWIDTH 25 0
BBX 21 28 2 0
BITMAP
180018
380018
380038
380038
380038
380038
300038
300030
300030
700070
700070
700070
700070
700070
600060
600060
E000E0
E000E0
E000E0
E000E0
E001C0
E001C0
E003C0
700780
780F00
3FFE00
1FFC00
03F000
ENDCHAR

STARTCHAR V
ENCODING 86
SWIDTH 702 0
DWIDTH 27 0
BBX 26 28 2 0
BITMAP
E00003C0
60000380
70000700
70000700
30000E00
38001C00
38001C00
18003800
1C003800
1C007000
1C00F000
0E00E000
0E01C000
0E01C000
06038000
07038000
07070000
030E0000
038E0000
039C0000
019C0000
01D80000
01F80000
00F00000
00E00000
00E00000
00C00000
00400000
ENDCHAR

STARTCHAR W
ENCODING 87
SWIDTH 960 0
DWIDTH 36 0
BBX 35 28 2 0
BITMAP
E0004000E0
60004000C0
6000C001C0
7000E001C0
7001E00380
7001E00380
7003E00700
3003700700
3807700E00
380E700E00
380E301C00
381C381C00
181C383800
1838383800
1C38183000
1C70187000
1C701C6000
0CE01CE000
0CE01CC000
0EC00DC000
0EC00EC000
0F800F8000
0F800F8000
0700070000
0700070000
0600060000
0600060000
0400020000
ENDCHAR

STARTCHAR X
ENCODING 88
SWIDTH 609 0
DWIDTH 23 0
BBX 24 28 -1 0
BITMAP
07000F
03800E
03801C
01803C
01C078
01C070
00E0E0
00E1E0
0073C0
007380
003B00
003F00
001E00
001C00
003C00
007E00
007600
00E700
01C700
03C380
038380
0701C0
0E01C0
1E00E0
1C00E0
3800E0
700070
F00070
ENDCHAR

STARTCHAR Y
ENCODING 89
SWIDTH 592 0
DWIDTH 22 0
BBX 21 28 2 0
BITMAP
E00038
E00070
7000F0
7001E0
3001C0
380380
180700
1C0F00
1C0E00
0E1C00
0E3800
077800
077000
03E000
03C000
018000
018000
038000
038000
038000
038000
038000
030000
030000
070000
070000
070000
070000
ENDCHAR

STARTCHAR Z
ENCODING 90
SWIDTH 480 0
DWIDTH 18 0
BBX 18 28 0 0
BITMAP
0FFFC0
0FFF80
0FFB80
000700
000700
000E00
000E00
001C00
001C00
003800
003800
007000
00E000
00E000
01C000
01C000
038000
038000
070000
070000
0E0000
0E0000
1C0000
1C0000
380000
7FFE00
7FFE00
FFFE00
ENDCHAR

STARTCHAR bracketleft
ENCODING 91
SWIDTH 351 0
DWIDTH 13 0
BBX 11 35 2 -7
BITMAP
07E0
07E0
07E0
0E00
0E00
0E00
0E00
0C00
0C00
0C00
1C00
1C00
1C00
1C00
1800
1800
1800
3800
3800
3800
3800
3000
3000
7000
7000
7000
7000
7000
6000
6000
E000
E000
FE00
FC00
FC00
ENDCHAR

STARTCHAR backslash
ENCODING 92
SWIDTH 605 0
DWIDTH 23 0
BBX 21 32 1 -4
BITMAP
E00000
700000
300000
380000
1C0000
1C0000
0E0000
0E0000
070000
070000
038000
018000
01C000
00E000
00E000
007000
007000
003800
003800
001C00
000C00
000E00
000700
000700
000380
000380
0001C0
0000C0
0000E0
000060
000070
000038
ENDCHAR

STARTCHAR bracketright
ENCODING 93
SWIDTH 351 0
DWIDTH 13 0
BBX 11 35 -2 -7
BITMAP
07E0
07E0
07E0
00E0
00E0
00E0
00E0
00C0
00C0
01C0
01C0
01C0
01C0
01C0
0180
0180
0380
0380
0380
0380
0380
0300
0300
0700
0700
0700
0700
0700
0600
0600
0E00
0E00
7E00
FE00
FC00
ENDCHAR

STARTCHAR asciicircum
ENCODING 94
SWIDTH 672 0
DWIDTH 26 0
BBX 21 21 2 7
BITMAP
007000
007800
007800
00E800
00DC00
01CC00
018E00
038600
030700
070300
060380
0E0180
0C01C0
0C00C0
1800E0
180060
380060
300070
700030
600038
E00018
ENDCHAR

STARTCHAR underscore
ENCODING 95
SWIDTH 500 0
DWIDTH 19 0
BBX 19 2 0 -5
BITMAP
FFFFE0
FFFFE0
ENDCHAR

STARTCHAR quoteleft
ENCODING 96
SWIDTH 351 0
DWIDTH 13 0
BBX 5 10 5 18
BITMAP
18
30
30
60
60
70
70
70
F0
F0
ENDCHAR

STARTCHAR a
ENCODING 97
SWIDTH 683 0
DWIDTH 26 0
BBX 23 21 1 0
BITMAP
00FE0E
03FF8C
0FC3CC
1E00EC
1C007C
38003C
70003C
70001C
600018
E00018
E00018
E00018
E00038
E00038
600038
700078
7800F0
3C01F0
1F0FB0
0FFE70
03F870
ENDCHAR

STARTCHAR b
ENCODING 98
SWIDTH 682 0
DWIDTH 26 0
BBX 23 28 1 0
BITMAP
0E0000
0E0000
0C0000
0C0000
0C0000
1C0000
1C0000
1C3F80
1CFFE0
1DE1F0
1F0078
1E001C
3C001C
38000E
38000E
38000E
30000E
30000E
30000E
30000C
70001C
78001C
780038
7C0078
7600F0
6787E0
63FF80
E0FE00
ENDCHAR

STARTCHAR c
ENCODING 99
SWIDTH 647 0
DWIDTH 25 0
BBX 21 21 1 0
BITMAP
007E00
01FFC0
07FFE0
0F00F0
1E0038
380018
700000
700000
600000
E00000
E00000
E00000
E00000
E00000
600000
700020
780070
3C01F0
1F07E0
0FFF80
03FE00
ENDCHAR

STARTCHAR d
ENCODING 100
SWIDTH 685 0
DWIDTH 26 0
BBX 24 28 1 0
BITMAP
000007
000006
000006
00000E
00000E
00000E
00000E
00FE0E
03FF8E
0FC3CC
1E00EC
1C007C
38003C
70003C
70001C
60001C
E00018
E00018
E00018
E00038
E00038
600038
700078
7800F0
3C01F0
1F0FB0
0FFE70
03F870
ENDCHAR

STARTCHAR e
ENCODING 101
SWIDTH 650 0
DWIDTH 25 0
BBX 21 21 1 0
BITMAP
007C00
03FF80
07FFC0
0F01E0
1C00F0
380070
700030
700038
600038
FFFFF8
FFFFF8
E00000
E00000
E00000
600000
700040
7000E0
3C03C0
1F0F80
0FFF00
03FC00
ENDCHAR

STARTCHAR f
ENCODING 102
SWIDTH 314 0
DWIDTH 12 0
BBX 10 29 2 0
BITMAP
07C0
0FC0
1E40
1C00
1800
1800
1800
3800
FF80
FF80
3800
3000
3000
3000
7000
7000
7000
7000
7000
6000
6000
E000
E000
E000
E000
E000
C000
C000
C000
ENDCHAR

STARTCHAR g
ENCODING 103
SWIDTH 673 0
DWIDTH 26 0
BBX 22 28 1 -7
BITMAP
01FE0C
03FF8C
0FC3DC
1E00EC
1C007C
38003C
70003C
700018
600018
E00018
E00018
E00038
E00038
E00038
600070
700070
7000B0
3C03D0
1F0FB0
0FFE70
03F870
000060
0000E0
E000E0
F003C0
7C0F80
1FFF00
07F800
ENDCHAR

STARTCHAR h
ENCODING 104
SWIDTH 610 0
DWIDTH 23 0
BBX 19 28 1 0
BITMAP
0C0000
1C0000
1C0000
1C0000
1C0000
180000
180000
18FE00
39FF80
3BC3C0
3E01C0
3C00E0
3800E0
3800E0
3800E0
3000E0
7000E0
7000E0
7000C0
7000C0
6000C0
6001C0
6001C0
E001C0
E001C0
E00180
E00180
C00180
ENDCHAR

STARTCHAR i
ENCODING 105
SWIDTH 200 0
DWIDTH 8 0
BBX 7 29 0 0
BITMAP
0C
1E
1E
0C
00
00
00
00
18
18
18
38
38
38
38
30
30
30
30
70
70
70
70
60
60
60
E0
E0
E0
ENDCHAR

STARTCHAR j
ENCODING 106
SWIDTH 203 0
DWIDTH 8 0
BBX 11 36 -4 -7
BITMAP
00C0
01E0
01E0
00C0
0000
0000
0000
0000
01C0
0180
0180
0380
0380
0380
0380
0300
0300
0300
0300
0700
0700
0700
0700
0600
0600
0600
0E00
0E00
0E00
0E00
0C00
0C00
1C00
9C00
F800
F000
ENDCHAR

STARTCHAR k
ENCODING 107
SWIDTH 502 0
DWIDTH 19 0
BBX 18 28 1 0
BITMAP
0C0000
1C0000
1C0000
1C0000
1C0000
180000
180000
1807C0
380F00
381E00
387C00
38F000
31E000
33C000
378000
7E0000
7C0000
7E0000
770000
678000
63C000
61E000
60F000
E07800
E03800
E01C00
E00E00
C00700
ENDCHAR

STARTCHAR l
ENCODING 108
SWIDTH 200 0
DWIDTH 8 0
BBX 7 28 0 0
BITMAP
0E
0E
0C
0C
0C
1C
1C
1C
1C
18
18
18
38
38
38
38
30
30
30
70
70
70
70
60
60
60
E0
E0
ENDCHAR

STARTCHAR m
ENCODING 109
SWIDTH 938 0
DWIDTH 36 0
BBX 32 21 1 0
BITMAP
1CFE03F0
19FF0FF8
1BCF9FFC
1F03FC0E
3C01F807
3C01F007
3800E007
3800E007
3801C007
3001C007
3001C006
7001C006
7001C006
7001800E
7001800E
6001800E
6003800E
6003800C
E003800C
E003800C
E003001C
ENDCHAR

STARTCHAR n
ENCODING 110
SWIDTH 610 0
DWIDTH 23 0
BBX 19 21 1 0
BITMAP
18FE00
39FF80
3BC7C0
3E01C0
3C00E0
3800E0
3800E0
3800E0
7000E0
7000E0
7000E0
7000C0
7000C0
6000C0
6001C0
6001C0
E001C0
E001C0
E00180
E00180
C00180
ENDCHAR

STARTCHAR o
ENCODING 111
SWIDTH 655 0
DWIDTH 25 0
BBX 21 21 1 0
BITMAP
00FE00
03FF80
0F83C0
1E00E0
3C0070
380070
700038
700038
600038
E00038
E00038
E00038
E00030
E00070
600070
7000E0
7801E0
3C03C0
1F0F80
0FFE00
03F800
ENDCHAR

STARTCHAR p
ENCODING 112
SWIDTH 682 0
DWIDTH 26 0
BBX 24 28 0 -7
BITMAP
0E3FC0
0E7FF0
0DF0F8
0F803C
0F000E
1E000E
1C0007
1C0007
1C0007
180007
180007
180007
380006
38000E
3C000E
3C001C
3E0038
370078
33C3F0
31FFC0
707F00
700000
700000
700000
700000
600000
600000
E00000
ENDCHAR

STARTCHAR q
ENCODING 113
SWIDTH 682 0
DWIDTH 26 0
BBX 23 28 1 -7
BITMAP
01FE0E
03FF8C
0FC3CC
1E00EC
3C007C
38003C
70003C
70001C
600018
E00018
E00018
E00018
E00038
E00038
600038
700078
7800F0
3C01B0
1F0FF0
0FFE70
03F870
000070
000070
000060
000060
000060
0000E0
0000E0
ENDCHAR

STARTCHAR r
ENCODING 114
SWIDTH 301 0
DWIDTH 11 0
BBX 13 21 0 0
BITMAP
38F8
3BF0
3BF0
3E00
3C00
3800
3800
3000
7000
7000
7000
7000
6000
6000
6000
E000
E000
E000
E000
C000
C000
ENDCHAR

STARTCHAR s
ENCODING 115
SWIDTH 388 0
DWIDTH 15 0
BBX 14 21 -1 0
BITMAP
07E0
0FF8
1E3C
1818
3808
3800
3800
1C00
0F00
0780
03E0
00F0
0070
0038
0038
0038
4038
E070
78F0
3FE0
1FC0
ENDCHAR

STARTCHAR t
ENCODING 116
SWIDTH 339 0
DWIDTH 13 0
BBX 10 28 2 0
BITMAP
0600
0600
0E00
0E00
0E00
0E00
0C00
FFC0
FFC0
1C00
1C00
1C00
1C00
1800
1800
1800
3800
3800
3800
3800
3800
3000
3000
3000
7000
7000
7000
7000
ENDCHAR

STARTCHAR u
ENCODING 117
SWIDTH 608 0
DWIDTH 23 0
BBX 19 21 2 0
BITMAP
7000E0
7000C0
7000C0
6000C0
6001C0
6001C0
E001C0
E001C0
E00180
E00180
E00180
C00380
C00380
C00380
C00300
E00700
E00700
700E00
3C7C00
1FF800
0FE000
ENDCHAR

STARTCHAR v
ENCODING 118
SWIDTH 554 0
DWIDTH 21 0
BBX 19 21 1 0
BITMAP
E000E0
E000C0
7001C0
700380
700380
380700
380700
180E00
1C0C00
1C1C00
0C3800
0E3800
0E7000
067000
076000
07E000
03C000
038000
038000
010000
010000
ENDCHAR

STARTCHAR w
ENCODING 119
SWIDTH 831 0
DWIDTH 32 0
BBX 30 21 1 0
BITMAP
E002001C
60030038
70070038
70070070
300F0070
300F80E0
381D80E0
381D81C0
1839C1C0
1C39C380
1C70C380
0C70E700
0CE0E700
0EE06E00
0EC07600
07807C00
07803C00
07003800
03003800
02001000
02001000
ENDCHAR

STARTCHAR x
ENCODING 120
SWIDTH 480 0
DWIDTH 18 0
BBX 18 21 -1 0
BITMAP
3801C0
380380
1C0380
0E0700
0E0E00
071E00
079C00
03B800
01F000
01F000
00E000
01F000
03F000
03B800
073800
0E1C00
0E1E00
1C0E00
380700
780700
F00380
ENDCHAR

STARTCHAR y
ENCODING 121
SWIDTH 536 0
DWIDTH 20 0
BBX 19 28 1 -7
BITMAP
E000E0
E000E0
6001C0
700380
700380
300700
380700
380E00
1C0C00
1C1C00
0C3800
0E3800
0E7000
067000
076000
07C000
03C000
038000
038000
070000
070000
0E0000
1C0000
1C0000
380000
380000
700000
F00000
ENDCHAR

STARTCHAR z
ENCODING 122
SWIDTH 425 0
DWIDTH 16 0
BBX 17 21 -1 0
BITMAP
1FFF80
3FFF00
000E00
001C00
001C00
003800
007000
007000
00E000
01C000
01C000
038000
078000
070000
0E0000
0E0000
1C0000
380000
380000
7FFF00
FFFE00
ENDCHAR

STARTCHAR braceleft
ENCODING 123
SWIDTH 351 0
DWIDTH 13 0
BBX 13 36 1 -8
BITMAP
0078
00F8
01F8
03C0
0380
0380
0780
0700
0700
0700
0700
0700
0F00
0E00
0E00
1C00
F800
E000
F000
7800
3C00
1C00
1C00
1C00
1C00
1C00
1C00
3C00
3800
3800
3800
3800
3C00
3F00
1F00
0700
ENDCHAR

STARTCHAR bar
ENCODING 124
SWIDTH 672 0
DWIDTH 26 0
BBX 3 35 11 -7
BITMAP
E0
E0
E0
E0
E0
E0
E0
E0
E0
E0
E0
E0
E0
E0
E0
E0
E0
E0
E0
E0
E0
E0
E0
E0
E0
E0
E0
E0
E0
E0
E0
E0
E0
E0
E0
ENDCHAR

STARTCHAR braceright
ENCODING 125
SWIDTH 351 0
DWIDTH 13 0
BBX 13 36 -3 -8
BITMAP
0780
07C0
07E0
01E0
00E0
00E0
00E0
00E0
01E0
01E0
01C0
01C0
01C0
01C0
01C0
01E0
00F8
0038
0078
00F8
01C0
0380
0380
0780
0700
0700
0700
0700
0700
0F00
0E00
0E00
1E00
FC00
F800
F000
ENDCHAR

STARTCHAR asciitilde
ENCODING 126
SWIDTH 606 0
DWIDTH 23 0
BBX 19 6 2 11
BITMAP
1E0000
7FC020
FFF0E0
E1FFE0
803FC0
000F00
ENDCHAR

STARTCHAR space
ENCODING 160
SWIDTH 277 0
DWIDTH 12 0
BBX 0 0 0 0
BITMAP
ENDCHAR

STARTCHAR exclamdown
ENCODING 161
SWIDTH 295 0
DWIDTH 11 0
BBX 7 28 1 -7
BITMAP
1C
3E
3E
1C
08
00
00
18
38
38
38
38
38
30
30
30
70
70
70
70
60
60
60
E0
E0
E0
E0
E0
ENDCHAR

STARTCHAR cent
ENCODING 162
SWIDTH 554 0
DWIDTH 21 0
BBX 21 30 0 -4
BITMAP
000010
000018
000038
000070
000060
007FE0
01FFC0
07E3F0
0F03E0
0E0720
1C0600
380E00
381C00
301800
703800
707000
707000
70E000
71C000
31C000
3B8000
1F00C0
1E03E0
0FFF80
1FFF00
1CF800
380000
700000
F00000
600000
ENDCHAR

STARTCHAR sterling
ENCODING 163
SWIDTH 554 0
DWIDTH 21 0
BBX 21 28 -1 0
BITMAP
000F80
003FE0
007FE0
00F070
00E070
01C030
01C038
01C000
01C000
01C000
01C000
00C000
1FFF00
1FFF00
1FFF00
00E000
00E000
00E000
00E000
00E000
1CE000
7FC070
7FC070
E3E0E0
E7F8E0
FF7FC0
7E1F80
3C0700
ENDCHAR

STARTCHAR currency
ENCODING 164
SWIDTH 554 0
DWIDTH 21 0
BBX 20 19 1 4
BITMAP
41F820
E7FE70
7FFFE0
3E07C0
3801C0
7000E0
7000E0
E00070
E00070
E00070
E00070
E00070
7000E0
7000E0
3801C0
3E07C0
7FFFE0
E7FE70
40F020
ENDCHAR

STARTCHAR yen
ENCODING 165
SWIDTH 554 0
DWIDTH 21 0
BBX 20 28 1 0
BITMAP
380070
3800E0
1C01C0
1C01C0
1C0380
0E0780
0E0700
070E00
071E00
071C00
03B800
03B800
01F000
01E000
00C000
7FFF80
7FFF80
01C000
01C000
01C000
FFFF80
FFFF00
018000
038000
038000
038000
038000
038000
ENDCHAR

STARTCHAR brokenbar
ENCODING 166
SWIDTH 672 0
DWIDTH 26 0
BBX 3 35 11 -7
BITMAP
E0
E0
E0
E0
E0
E0
E0
E0
E0
E0
E0
E0
00
00
00
00
00
00
00
00
00
00
00
E0
E0
E0
E0
E0
E0
E0
E0
E0
E0
E0
E0
ENDCHAR

STARTCHAR section
ENCODING 167
SWIDTH 615 0
DWIDTH 23 0
BBX 18 36 2 -7
BITMAP
007800
01FE00
03FF80
078380
0701C0
0E01C0
0E0000
0E0000
060000
070000
03C000
01E000
07F800
1E7C00
381E00
300F00
700700
700380
700380
380380
3C0700
1E0F00
0F3E00
07F800
03E000
00F000
007800
003800
001C00
001C00
001C00
E01C00
E03800
78F800
3FF000
1FC000
ENDCHAR

STARTCHAR dieresis
ENCODING 168
SWIDTH 369 0
DWIDTH 14 0
BBX 12 4 3 24
BITMAP
7070
F0F0
F0F0
E0E0
ENDCHAR

STARTCHAR copyright
ENCODING 169
SWIDTH 747 0
DWIDTH 28 0
BBX 28 28 0 0
BITMAP
003F8000
00FFF000
03C03C00
07000E00
0C000700
18000380
303F81C0
307FE0C0
60F0F060
61C07060
41C03830
C1800030
C3800030
C3800030
C3800030
C3800030
C1803830
41C03070
61C07060
60F0E060
307FC0C0
301F81C0
18000380
0C000700
07000E00
03C07C00
00FFF000
001F8000
ENDCHAR

STARTCHAR ordfeminine
ENCODING 170
SWIDTH 369 0
DWIDTH 14 0
BBX 12 13 1 15
BITMAP
0F30
3FB0
70F0
6070
E070
C060
C060
C060
C060
E0E0
71E0
7F60
1EC0
ENDCHAR

STARTCHAR guillemotleft
ENCODING 171
SWIDTH 425 0
DWIDTH 16 0
BBX 17 21 0 0
BITMAP
070380
070700
0E0700
0C0E00
1C0C00
181C00
381800
703800
707000
E07000
E06000
E06000
607000
607000
703000
703000
303800
303800
381800
381C00
181C00
ENDCHAR

STARTCHAR logicalnot
ENCODING 172
SWIDTH 606 0
DWIDTH 23 0
BBX 19 11 2 8
BITMAP
FFFFE0
FFFFE0
FFFFE0
0000E0
0000E0
0000E0
0000E0
0000E0
0000E0
0000E0
0000E0
ENDCHAR

STARTCHAR hyphen
ENCODING 173
SWIDTH 332 0
DWIDTH 13 0
BBX 11 2 0 9
BITMAP
FFE0
FFC0
ENDCHAR

STARTCHAR registered
ENCODING 174
SWIDTH 747 0
DWIDTH 28 0
BBX 28 28 0 0
BITMAP
003FC000
00FFF000
03C03C00
07000E00
0E000300
1C000180
38FFE0C0
30FFF0C0
60E07060
60E03860
C0E03830
C0E03830
C0E07030
C0FFE030
C0FFF030
C0E07030
C0E03830
60E03830
60E03860
60E03860
30E038C0
38E039C0
1C000180
0E000700
07000E00
03C03C00
00FFF000
001F8000
ENDCHAR

STARTCHAR macron
ENCODING 175
SWIDTH 485 0
DWIDTH 18 0
BBX 13 2 4 26
BITMAP
7FF8
FFF8
ENDCHAR

STARTCHAR degree
ENCODING 176
SWIDTH 400 0
DWIDTH 15 0
BBX 13 13 2 15
BITMAP
0F80
3FE0
70F0
6030
E038
C018
C018
C018
E038
6030
78F0
3FE0
0F80
ENDCHAR

STARTCHAR plusminus
ENCODING 177
SWIDTH 606 0
DWIDTH 23 0
BBX 19 25 2 0
BITMAP
00E000
00E000
00E000
00E000
00E000
00E000
00E000
00E000
FFFFE0
FFFFE0
FFFFE0
00E000
00E000
00E000
00E000
00E000
00E000
00E000
00E000
000000
000000
000000
FFFFE0
FFFFE0
FFFFE0
ENDCHAR

STARTCHAR twosuperior
ENCODING 178
SWIDTH 332 0
DWIDTH 13 0
BBX 12 15 0 13
BITMAP
07C0
0FE0
1870
3830
3030
0070
0060
00C0
0180
0300
0600
0C00
3800
7FE0
FFE0
ENDCHAR

STARTCHAR threesuperior
ENCODING 179
SWIDTH 332 0
DWIDTH 13 0
BBX 11 15 1 13
BITMAP
0F80
1FC0
38E0
3060
0060
00E0
07C0
07C0
00C0
0060
C060
E0E0
61C0
3F80
1F00
ENDCHAR

STARTCHAR acute
ENCODING 180
SWIDTH 375 0
DWIDTH 14 0
BBX 9 6 6 24
BITMAP
0780
0F00
1C00
3800
7000
E000
ENDCHAR

STARTCHAR mu
ENCODING 181
SWIDTH 608 0
DWIDTH 23 0
BBX 20 28 0 -7
BITMAP
0E0030
0C0030
0C0070
1C0070
1C0070
1C0070
1C0070
1C0060
180060
1800E0
1800E0
3800E0
3800E0
3800E0
3801C0
3801C0
3C03C0
3E0FC0
77FEC0
77FDC0
71F1C0
700000
600000
600000
600000
E00000
E00000
E00000
ENDCHAR

STARTCHAR paragraph
ENCODING 182
SWIDTH 564 0
DWIDTH 21 0
BBX 17 32 2 -4
BITMAP
0FFF80
3F8600
7F8600
7F8600
FF8600
FF8600
FF8600
FF8600
FF8600
FF8600
FF8600
7F8600
7F8600
3F8600
078600
018600
018600
018600
018600
018600
018600
018600
018600
018600
018600
018600
018600
018600
018600
018600
018600
018600
ENDCHAR

STARTCHAR periodcentered
ENCODING 183
SWIDTH 277 0
DWIDTH 11 0
BBX 5 5 2 11
BITMAP
70
F8
F8
70
20
ENDCHAR

STARTCHAR cedilla
ENCODING 184
SWIDTH 324 0
DWIDTH 12 0
BBX 8 7 -1 -7
BITMAP
0C
0C
0E
0F
03
47
FC
ENDCHAR

STARTCHAR onesuperior
ENCODING 185
SWIDTH 332 0
DWIDTH 13 0
BBX 4 14 5 14
BITMAP
F0
F0
30
30
30
60
60
60
60
60
60
C0
C0
C0
ENDCHAR

STARTCHAR ordmasculine
ENCODING 186
SWIDTH 369 0
DWIDTH 14 0
BBX 12 13 1 15
BITMAP
0F80
3FC0
38E0
6070
E030
C030
C030
C030
C070
E060
70E0
3FC0
1F00
ENDCHAR

STARTCHAR guillemotright
ENCODING 187
SWIDTH 425 0
DWIDTH 16 0
BBX 16 21 -1 0
BITMAP
181C
181C
1C0C
1C0C
0C0E
0C0E
0E06
0E07
0607
0607
0703
0E07
0E0E
1C0E
1C1C
381C
3838
7038
7070
E070
E0E0
ENDCHAR

STARTCHAR onequarter
ENCODING 188
SWIDTH 831 0
DWIDTH 32 0
BBX 25 29 3 -1
BITMAP
78003800
F8007000
18006000
3000C000
3000C000
30018000
30038000
30030000
30060000
60060000
600C0000
601C0000
60180000
60300080
00300100
00600300
00E00700
00C00F00
01801F00
01803B00
03003200
07006600
0600C600
0C01FF80
0C07FF80
18000600
38000600
30000C00
60000000
ENDCHAR

STARTCHAR onehalf
ENCODING 189
SWIDTH 831 0
DWIDTH 32 0
BBX 25 29 3 -1
BITMAP
F0006000
F000C000
3000C000
30018000
30038000
30030000
60060000
60060000
600C0000
600C0000
60180000
60300000
C0300000
C0603E00
00607F00
00C0C380
0181C180
01818180
03000380
03000300
06000600
0C000C00
0C001800
18003000
18006000
3001C000
6003FF00
6007FF00
C0000000
ENDCHAR

STARTCHAR threequarters
ENCODING 190
SWIDTH 831 0
DWIDTH 32 0
BBX 29 29 1 -1
BITMAP
0F800180
1FC00300
38E00700
30600600
00600C00
00E00C00
07C01800
07C03000
00C03000
00606000
C0606000
E0E0C000
61C18000
3F818010
1F030010
00070030
00060070
000C00F0
000C01B0
001803E0
00380760
00300E60
00601860
00603FF8
00C07FF8
01C000C0
018000C0
030000C0
03000000
ENDCHAR

STARTCHAR questiondown
ENCODING 191
SWIDTH 591 0
DWIDTH 22 0
BBX 16 29 1 -7
BITMAP
0070
0070
00F8
0070
0020
0000
0000
03F8
07FC
0F1E
1C0E
1806
1806
000E
001C
00FC
03F0
1FC0
3E00
7800
7000
E007
E006
E00E
E00E
703C
3FF8
1FF0
07C0
ENDCHAR

STARTCHAR Agrave
ENCODING 192
SWIDTH 740 0
DWIDTH 28 0
BBX 26 36 -1 0
BITMAP
000F0000
00070000
00038000
0003C000
0001C000
0000E000
00000000
00000000
00008000
00018000
0001C000
0003C000
0003C000
0007E000
00076000
000EE000
001E7000
001C7000
00387000
00383800
00703800
00703800
00E01C00
01C01C00
01FFFC00
03FFFE00
03FFFE00
07000E00
07000700
0E000700
1E000700
1C000380
38000380
38000380
700001C0
F00001C0
ENDCHAR

STARTCHAR Aacute
ENCODING 193
SWIDTH 740 0
DWIDTH 28 0
BBX 26 36 -1 0
BITMAP
00001E00
00003800
00007000
0000E000
0001C000
00038000
00000000
00000000
00008000
00018000
0001C000
0003C000
0003C000
0007E000
00076000
000EE000
001E7000
001C7000
00387000
00383800
00703800
00703800
00E01C00
01C01C00
01FFFC00
03FFFE00
03FFFE00
07000E00
07000700
0E000700
1E000700
1C000380
38000380
38000380
700001C0
F00001C0
ENDCHAR

STARTCHAR Acircumflex
ENCODING 194
SWIDTH 740 0
DWIDTH 28 0
BBX 26 35 -1 0
BITMAP
0000E000
0003F000
0007B000
000E3800
003C1E00
00000000
00000000
00008000
00018000
0001C000
0003C000
0003C000
0007E000
00076000
000EE000
001E7000
001C7000
00387000
00383800
00703800
00703800
00E01C00
01C01C00
01FFFC00
03FFFE00
03FFFE00
07000E00
07000700
0E000700
1E000700
1C000380
38000380
38000380
700001C0
F00001C0
ENDCHAR

STARTCHAR Atilde
ENCODING 195
SWIDTH 740 0
DWIDTH 28 0
BBX 26 34 -1 0
BITMAP
001F8000
003FCE00
0031FE00
0010F800
00000000
00000000
00008000
00018000
0001C000
0003C000
0003C000
0007E000
00076000
000EE000
001E7000
001C7000
00387000
00383800
00703800
00703800
00E01C00
01C01C00
01FFFC00
03FFFE00
03FFFE00
07000E00
07000700
0E000700
1E000700
1C000380
38000380
38000380
700001C0
F00001C0
ENDCHAR

STARTCHAR Adieresis
ENCODING 196
SWIDTH 740 0
DWIDTH 28 0
BBX 26 34 0 0
BITMAP
001C1C00
003C3C00
003C3C00
00383800
00000000
00000000
00010000
00018000
00038000
00038000
0007C000
000FC000
000EC000
001CE000
001CE000
00386000
00387000
00707000
00E03000
00E03800
01C03800
01801800
03FFFC00
07FFFC00
07FFFC00
0E000E00
0E000E00
1C000600
1C000700
38000700
78000300
70000380
E0000380
E00001C0
ENDCHAR

STARTCHAR Aring
ENCODING 197
SWIDTH 740 0
DWIDTH 28 0
BBX 25 37 0 0
BITMAP
0007C000
000C6000
00082000
00082000
00082000
000C6000
0007C000
00000000
00000000
00010000
00018000
00038000
00038000
0007C000
000FC000
000EC000
001CE000
001CE000
0038E000
00387000
00707000
00707000
00E03000
01E03800
01C03800
03FFF800
03FFFC00
07FFFC00
07000C00
0E000E00
0E000E00
1C000600
3C000700
38000700
70000700
70000380
E0000380
ENDCHAR

STARTCHAR AE
ENCODING 198
SWIDTH 992 0
DWIDTH 38 0
BBX 37 28 -1 0
BITMAP
00000FFFF8
00001FFFF0
00003FFFF0
00003B0000
0000770000
0000E70000
0000C70000
0001C60000
00038E0000
00070E0000
00070E0000
000E0E0000
001C0FFFE0
001C0FFFE0
00380FFFE0
00700C0000
00FFFC0000
00FFFC0000
01FFFC0000
03801C0000
03801C0000
07001C0000
0E00180000
1C00180000
1C00380000
38003FFFC0
70003FFF80
F0003FFF80
ENDCHAR

STARTCHAR Ccedilla
ENCODING 199
SWIDTH 813 0
DWIDTH 31 0
BBX 28 34 2 -6
BITMAP
000FF000
007FFE00
01FFFF80
03E007C0
078001F0
0F0000E0
1E000020
3C000000
38000000
70000000
70000000
60000000
E0000000
E0000000
E0000000
E0000000
E0000000
E0000000
60000000
70000000
70000000
38000000
3C000100
1E000780
0F803F00
03FFFE00
01FFF800
001F8000
00180000
001C0000
001E0000
00060000
008E0000
00F80000
ENDCHAR

STARTCHAR Egrave
ENCODING 200
SWIDTH 536 0
DWIDTH 20 0
BBX 19 36 1 0
BITMAP
01E000
00E000
00F000
007800
003800
001C00
000000
000000
0FFFE0
1FFFC0
1FFFC0
1C0000
1C0000
1C0000
180000
180000
380000
380000
380000
380000
3FFF80
3FFF80
3FFF80
300000
700000
700000
700000
700000
700000
700000
600000
E00000
E00000
FFFE00
FFFE00
FFFE00
ENDCHAR

STARTCHAR Eacute
ENCODING 201
SWIDTH 536 0
DWIDTH 20 0
BBX 19 36 1 0
BITMAP
0007C0
000700
000E00
001C00
003800
007000
000000
000000
0FFFE0
1FFFC0
1FFFC0
1C0000
1C0000
1C0000
180000
180000
380000
380000
380000
380000
3FFF80
3FFF80
3FFF80
300000
700000
700000
700000
700000
700000
700000
600000
E00000
E00000
FFFE00
FFFE00
FFFE00
ENDCHAR

STARTCHAR Ecircumflex
ENCODING 202
SWIDTH 536 0
DWIDTH 20 0
BBX 19 35 1 0
BITMAP
001800
007C00
00F600
01C700
0783C0
000000
000000
0FFFE0
1FFFC0
1FFFC0
1C0000
1C0000
1C0000
180000
180000
380000
380000
380000
380000
3FFF80
3FFF80
3FFF80
300000
700000
700000
700000
700000
700000
700000
600000
E00000
E00000
FFFE00
FFFE00
FFFE00
ENDCHAR

STARTCHAR Edieresis
ENCODING 203
SWIDTH 536 0
DWIDTH 20 0
BBX 19 34 1 0
BITMAP
01C1C0
03C3C0
03C3C0
038380
000000
000000
0FFFE0
0FFFE0
1FFFE0
1C0000
1C0000
1C0000
1C0000
1C0000
180000
180000
380000
380000
3FFFC0
3FFF80
3FFF80
380000
300000
700000
700000
700000
700000
700000
700000
600000
600000
FFFF00
FFFF00
FFFF00
ENDCHAR

STARTCHAR Igrave
ENCODING 204
SWIDTH 226 0
DWIDTH 9 0
BBX 8 36 1 0
BITMAP
78
3C
1C
0E
07
07
00
00
1C
1C
1C
1C
1C
18
18
38
38
38
38
38
38
30
30
70
70
70
70
70
60
60
E0
E0
E0
E0
E0
E0
ENDCHAR

STARTCHAR Iacute
ENCODING 205
SWIDTH 226 0
DWIDTH 9 0
BBX 11 36 1 0
BITMAP
01E0
03C0
0780
0700
0E00
3C00
0000
0000
1C00
1C00
1C00
1C00
1C00
1800
1800
3800
3800
3800
3800
3800
3800
3000
3000
7000
7000
7000
7000
7000
6000
6000
E000
E000
E000
E000
E000
E000
ENDCHAR

STARTCHAR Icircumflex
ENCODING 206
SWIDTH 226 0
DWIDTH 9 0
BBX 14 35 -1 0
BITMAP
0380
07C0
0EE0
3C70
F83C
0000
0000
0700
0700
0700
0700
0700
0600
0600
0E00
0E00
0E00
0E00
0E00
0C00
0C00
0C00
1C00
1C00
1C00
1C00
1C00
1800
1800
3800
3800
3800
3800
3800
3800
ENDCHAR

STARTCHAR Idieresis
ENCODING 207
SWIDTH 226 0
DWIDTH 9 0
BBX 12 34 0 0
BITMAP
7070
F0F0
F0F0
E0E0
0000
0000
0E00
0E00
0E00
0C00
1C00
1C00
1C00
1C00
1C00
1C00
1C00
3800
3800
3800
3800
3800
3800
3800
3000
7000
7000
7000
7000
7000
7000
6000
E000
E000
ENDCHAR

STARTCHAR Gbreve
ENCODING 208
SWIDTH 872 0
DWIDTH 33 0
BBX 29 34 1 0
BITMAP
00380E00
001C1C00
001FF800
0007F000
00000000
00000000
000FE000
007FFC00
01FFFF00
03E00FC0
078003E0
0F0000F0
1E000078
3C000020
38000000
70000000
70000000
60000000
E0000000
E0000000
E000FFF8
E000FFF8
E000FFF8
E0000038
70000070
70000070
780000E0
380001E0
1E0003C0
0F000780
07C03F00
03FFFE00
00FFF800
001F8000
ENDCHAR

STARTCHAR Ntilde
ENCODING 209
SWIDTH 740 0
DWIDTH 28 0
BBX 25 34 1 0
BITMAP
007E0000
00FF9800
00E7F800
0041F000
00000000
00000000
08000380
18000380
1C000380
1E000380
1E000380
1F000300
1B800300
1BC00700
19C00700
38E00700
38700700
38700700
38380600
381C0600
301E0600
300E0E00
70070E00
70078E00
70038E00
7001CE00
7000EC00
6000F400
60007C00
60003C00
E0003C00
E0001C00
E0000C00
E0000400
ENDCHAR

STARTCHAR Ograve
ENCODING 210
SWIDTH 869 0
DWIDTH 33 0
BBX 30 35 1 0
BITMAP
000F8000
00038000
0003C000
0001C000
0000E000
00007000
00000000
0007F000
003FFE00
00FFFF80
03F007C0
078001E0
0F0000F0
1E000070
3C000038
38000038
7000001C
7000001C
7000001C
E000001C
E000001C
E000001C
E000001C
E0000038
E0000038
E0000078
70000070
700000F0
380001E0
3C0003C0
1E000F80
0F803F00
07FFFC00
01FFF000
003F8000
ENDCHAR

STARTCHAR Oacute
ENCODING 211
SWIDTH 869 0
DWIDTH 33 0
BBX 30 35 1 0
BITMAP
00001E00
00003C00
00007800
0000F000
0000E000
0003C000
00000000
0007F000
003FFE00
00FFFF80
03F007C0
078001E0
0F0000F0
1E000070
3C000038
38000038
7000001C
7000001C
7000001C
E000001C
E000001C
E000001C
E000001C
E0000038
E0000038
E0000078
70000070
700000F0
380001E0
3C0003C0
1E000F80
0F803F00
07FFFC00
01FFF000
003F8000
ENDCHAR

STARTCHAR Ocircumflex
ENCODING 212
SWIDTH 869 0
DWIDTH 33 0
BBX 30 34 1 0
BITMAP
0000E000
0001F000
0007B800
000F1C00
003C0F00
00000000
0007F000
003FFE00
00FFFF80
03F007C0
078001E0
0F0000F0
1E000070
3C000038
38000038
7000001C
7000001C
7000001C
E000001C
E000001C
E000001C
E000001C
E0000038
E0000038
E0000078
70000070
700000F0
380001E0
3C0003C0
1E000F80
0F803F00
07FFFC00
01FFF000
003F8000
ENDCHAR

STARTCHAR Otilde
ENCODING 213
SWIDTH 869 0
DWIDTH 33 0
BBX 30 33 1 0
BITMAP
000FC600
003FFF00
00187E00
00000000
00000000
0007F000
003FFE00
00FFFF80
03F007C0
078001E0
0F0000F0
1E000070
3C000038
38000038
7000001C
7000001C
7000001C
E000001C
E000001C
E000001C
E000001C
E0000038
E0000038
E0000078
70000070
700000F0
380001E0
3C0003C0
1E000F80
0F803F00
07FFFC00
01FFF000
003F8000
ENDCHAR

STARTCHAR Odieresis
ENCODING 214
SWIDTH 869 0
DWIDTH 33 0
BBX 30 33 1 0
BITMAP
000E0E00
001E1E00
001E1E00
001C1C00
00000000
0007F000
007FFE00
01FFFF80
03F007C0
078001E0
0F0000F0
1E000070
3C000038
38000038
7000001C
7000001C
7000001C
E000001C
E000001C
E000001C
E000001C
E0000038
E0000038
E0000078
70000070
700000E0
380001E0
3C0003C0
1E000F80
0F803F00
07FFFC00
01FFF000
003F8000
ENDCHAR

STARTCHAR multiply
ENCODING 215
SWIDTH 606 0
DWIDTH 23 0
BBX 15 16 4 6
BITMAP
4002
C006
E00E
701C
3838
1C70
0EE0
07C0
0380
07C0
0EE0
1C70
3838
701C
E00E
4004
ENDCHAR

STARTCHAR Oslash
ENCODING 216
SWIDTH 868 0
DWIDTH 33 0
BBX 30 29 1 -1
BITMAP
0007F020
003FFE78
00FFFFF0
03F005C0
07C003E0
0F0003F0
1E000770
3C000E38
38001C38
7000381C
7000701C
7000E01C
E001C01C
E003801C
E007801C
E00F001C
E01E0038
E03C0038
60780078
70F00070
70E000F0
39C001E0
3D8003C0
1F000F80
0F803F00
1FFFFC00
39FFF000
383F8000
10000000
ENDCHAR

STARTCHAR Ugrave
ENCODING 217
SWIDTH 655 0
DWIDTH 25 0
BBX 21 36 2 0
BITMAP
00F000
007800
003800
001C00
000E00
000E00
000000
000000
180018
380018
380038
380038
380038
380038
300038
300030
300030
700070
700070
700070
700070
700070
600060
600060
E000E0
E000E0
E000E0
E000E0
E001C0
E001C0
E003C0
700780
780F00
3FFE00
1FFC00
03E000
ENDCHAR

STARTCHAR Uacute
ENCODING 218
SWIDTH 655 0
DWIDTH 25 0
BBX 21 36 2 0
BITMAP
0001E0
0003C0
000780
000F00
000E00
003800
000000
000000
180018
380018
380038
380038
380038
380038
300038
300030
300030
700070
700070
700070
700070
700070
600060
600060
E000E0
E000E0
E000E0
E000E0
E001C0
E001C0
E003C0
700780
780F00
3FFE00
1FFC00
03E000
ENDCHAR

STARTCHAR Ucircumflex
ENCODING 219
SWIDTH 655 0
DWIDTH 25 0
BBX 21 35 2 0
BITMAP
000E00
001F00
007B80
00F3C0
03C1F0
000000
000000
180018
380018
380038
380038
380038
380038
300038
300030
300030
700070
700070
700070
700070
700070
600060
600060
E000E0
E000E0
E000E0
E000E0
E001C0
E001C0
E003C0
700780
780F00
3FFE00
1FFC00
03E000
ENDCHAR

STARTCHAR Udieresis
ENCODING 220
SWIDTH 655 0
DWIDTH 25 0
BBX 22 34 2 0
BITMAP
00E0E0
01E1E0
01E1E0
01C1C0
000000
000000
18001C
380018
380038
380038
380038
380038
300038
300038
700030
700030
700070
700070
700070
600070
600070
600070
E00060
E000E0
E000E0
E000E0
E001E0
E001C0
E003C0
700780
780F00
3FFF00
1FFC00
03E000
ENDCHAR

STARTCHAR Idotaccent
ENCODING 221
SWIDTH 226 0
DWIDTH 9 0
BBX 8 34 0 0
BITMAP
07
0F
0F
0E
00
00
0E
0E
0E
0C
1C
1C
1C
1C
1C
1C
18
18
38
38
38
38
38
38
30
70
70
70
70
70
70
70
60
E0
ENDCHAR

STARTCHAR Scedilla
ENCODING 222
SWIDTH 498 0
DWIDTH 19 0
BBX 18 34 0 -6
BITMAP
00F800
01FE00
07FF00
070780
0E0380
0E01C0
0E0000
0E0000
0E0000
070000
078000
03C000
01E000
00F000
007800
001C00
001E00
000E00
000700
000700
000700
E00700
700E00
700E00
383C00
3FF800
1FF000
07C000
030000
038000
03C000
00C000
11C000
1F8000
ENDCHAR

STARTCHAR germandbls
ENCODING 223
SWIDTH 554 0
DWIDTH 21 0
BBX 18 29 0 0
BITMAP
003C00
00FF00
03FF80
0783C0
0701C0
0E00C0
0E00C0
0C00C0
1C01C0
1C01C0
1C0780
183F00
187E00
187800
383E00
380700
380380
380180
3801C0
3001C0
3001C0
7001C0
700180
700380
700780
720F00
63FE00
67FC00
E1F000
ENDCHAR

STARTCHAR agrave
ENCODING 224
SWIDTH 683 0
DWIDTH 26 0
BBX 23 30 1 0
BITMAP
00F800
003800
003C00
001C00
000E00
000600
000000
000000
000000
00FE0E
03FF8C
0FC3CC
1E00EC
1C007C
38003C
70003C
70001C
600018
E00018
E00018
E00018
E00038
E00038
600038
700078
7800F0
3C01F0
1F0FB0
0FFE70
03F870
ENDCHAR

STARTCHAR aacute
ENCODING 225
SWIDTH 683 0
DWIDTH 26 0
BBX 23 30 1 0
BITMAP
0003E0
000380
000700
000E00
001C00
003800
000000
000000
000000
00FE0E
03FF8C
0FC3CC
1E00EC
1C007C
38003C
70003C
70001C
600018
E00018
E00018
E00018
E00038
E00038
600038
700078
7800F0
3C01F0
1F0FB0
0FFE70
03F870
ENDCHAR

STARTCHAR acircumflex
ENCODING 226
SWIDTH 683 0
DWIDTH 26 0
BBX 23 29 1 0
BITMAP
001E00
003F00
007380
01E1C0
03C0F0
000000
000000
000000
00FE0E
03FF8C
0FC3CC
1E00EC
1C007C
38003C
70003C
70001C
600018
E00018
E00018
E00018
E00038
E00038
600038
700078
7800F0
3C01F0
1F0FB0
0FFE70
03F870
ENDCHAR

STARTCHAR atilde
ENCODING 227
SWIDTH 683 0
DWIDTH 26 0
BBX 23 28 1 0
BITMAP
00F860
03FFF0
018FC0
000000
000000
000000
000000
00FE0E
03FF8C
0FC3CC
1E00EC
1C007C
38003C
70003C
70001C
600018
E00018
E00018
E00018
E00038
E00038
600038
700078
7800F0
3C01F0
1F0FB0
0FFE70
03F870
ENDCHAR

STARTCHAR adieresis
ENCODING 228
SWIDTH 683 0
DWIDTH 26 0
BBX 23 29 1 0
BITMAP
00E0E0
01E1E0
01E1E0
01C1C0
000000
000000
000000
000000
00FF0E
03FF8E
0F83CC
1E00EC
1C007C
38003C
70001C
70001C
60001C
E0001C
E00018
E00018
E00018
E00038
600038
700078
7000F8
3C01F8
1F0FB0
0FFE30
03F870
ENDCHAR

STARTCHAR aring
ENCODING 229
SWIDTH 683 0
DWIDTH 26 0
BBX 22 32 1 0
BITMAP
001C00
002200
004100
004100
004100
006100
002600
001C00
000000
000000
000000
00FE0C
03FF9C
07C3DC
1E00EC
1C007C
38003C
70003C
700018
600018
E00018
E00018
E00038
E00038
E00038
600070
700070
7800F0
3C03F0
1F0F70
0FFE70
03F870
ENDCHAR

STARTCHAR ae
ENCODING 230
SWIDTH 1157 0
DWIDTH 44 0
BBX 40 21 1 0
BITMAP
00FF061FE0
03FFC67FF8
0FC3E6F87C
1E007EE01E
1C003F800E
38001F0007
70001F0007
70001E0003
60000E0003
E0000FFFFF
E0000FFFFF
E0000C0000
E0001C0000
E0001C0000
60003E0000
70003E0000
78007F0018
3C01DB803C
1F07BBE0F8
0FFF39FFE0
03FC387F80
ENDCHAR

STARTCHAR ccedilla
ENCODING 231
SWIDTH 647 0
DWIDTH 25 0
BBX 21 27 1 -6
BITMAP
007E00
03FF80
07FFE0
0F00F0
1C0078
380030
700000
700000
600000
E00000
E00000
E00000
E00000
E00000
600000
700000
700070
3C01E0
1F0FC0
0FFF80
03FC00
00C000
00C000
00F000
003000
047000
07E000
ENDCHAR

STARTCHAR egrave
ENCODING 232
SWIDTH 650 0
DWIDTH 25 0
BBX 21 30 1 0
BITMAP
01E000
00F000
007800
003800
001C00
000E00
000000
000000
000000
007C00
01FF80
07FFC0
0F01E0
1C00F0
380070
700030
700038
600038
FFFFF8
FFFFF8
E00000
E00000
E00000
600000
700040
7000E0
3C03C0
1F0F80
0FFF00
03FC00
ENDCHAR

STARTCHAR eacute
ENCODING 233
SWIDTH 650 0
DWIDTH 25 0
BBX 21 30 1 0
BITMAP
0003C0
000780
000F00
001E00
001C00
007000
000000
000000
000000
007C00
01FF80
07FFC0
0F01E0
1C00F0
380070
700030
700038
600038
FFFFF8
FFFFF8
E00000
E00000
E00000
600000
700040
7000E0
3C03C0
1F0F80
0FFF00
03FC00
ENDCHAR

STARTCHAR ecircumflex
ENCODING 234
SWIDTH 650 0
DWIDTH 25 0
BBX 21 29 1 0
BITMAP
001C00
003E00
00F700
01E380
0781E0
000000
000000
000000
007C00
01FF80
07FFC0
0F01E0
1C00F0
380070
700030
700038
600038
FFFFF8
FFFFF8
E00000
E00000
E00000
600000
700040
7000E0
3C03C0
1F0F80
0FFF00
03FC00
ENDCHAR

STARTCHAR edieresis
ENCODING 235
SWIDTH 650 0
DWIDTH 25 0
BBX 21 28 1 0
BITMAP
01C1C0
03C3C0
03C3C0
038380
000000
000000
000000
007C00
03FF80
07FFC0
0F01E0
1C00F0
380070
700030
700038
600038
FFFFF8
FFFFF8
E00000
E00000
E00000
600000
700040
7000E0
3803C0
1E0F80
0FFF00
03FC00
ENDCHAR

STARTCHAR igrave
ENCODING 236
SWIDTH 200 0
DWIDTH 8 0
BBX 7 30 0 0
BITMAP
F0
78
38
1C
0E
00
00
00
00
1C
18
18
18
38
38
38
38
30
30
30
30
70
70
70
70
60
60
60
E0
E0
ENDCHAR

STARTCHAR iacute
ENCODING 237
SWIDTH 200 0
DWIDTH 8 0
BBX 11 30 0 0
BITMAP
03E0
0700
0E00
1C00
3800
0000
0000
0000
0000
1C00
1800
1800
1800
3800
3800
3800
3800
3000
3000
3000
3000
7000
7000
7000
7000
6000
6000
6000
E000
E000
ENDCHAR

STARTCHAR icircumflex
ENCODING 238
SWIDTH 200 0
DWIDTH 8 0
BBX 13 29 -2 0
BITMAP
0780
1FC0
3CE0
F078
0000
0000
0000
0000
0700
0600
0600
0600
0E00
0E00
0E00
0E00
0C00
0C00
0C00
0C00
1C00
1C00
1C00
1C00
1800
1800
1800
3800
3800
ENDCHAR

STARTCHAR idieresis
ENCODING 239
SWIDTH 200 0
DWIDTH 8 0
BBX 12 29 -1 0
BITMAP
7070
F0F0
F0F0
E0E0
0000
0000
0000
0000
0E00
0E00
0E00
0E00
0C00
0C00
0C00
1C00
1C00
1C00
1C00
1C00
1800
1800
3800
3800
3800
3800
3800
3000
3000
ENDCHAR

STARTCHAR gbreve
ENCODING 240
SWIDTH 673 0
DWIDTH 26 0
BBX 22 36 1 -7
BITMAP
038070
01C1E0
00FFC0
007F00
000000
000000
000000
000000
01FE0C
03FF8C
0FC3DC
1E00EC
1C007C
38003C
70003C
700038
600018
E00018
E00018
E00038
E00038
E00038
600070
700070
7000B0
3C03D0
1F0FB0
0FFE70
03F870
000060
0000E0
E000E0
F003C0
7C0F80
1FFF00
07F800
ENDCHAR

STARTCHAR ntilde
ENCODING 241
SWIDTH 610 0
DWIDTH 23 0
BBX 19 28 1 0
BITMAP
07E180
0FFFC0
0E3F00
000000
000000
000000
000000
18FE00
39FF80
3BC7C0
3E01C0
3C00E0
3800E0
3800E0
3800E0
7000E0
7000E0
7000E0
7000C0
7000C0
6000C0
6001C0
6001C0
E001C0
E001C0
E00180
E00180
C00180
ENDCHAR

STARTCHAR ograve
ENCODING 242
SWIDTH 655 0
DWIDTH 25 0
BBX 21 30 1 0
BITMAP
01F000
007000
003800
003800
001C00
000C00
000000
000000
000000
00FE00
03FF80
0F83C0
1E00E0
3C0070
380070
700038
700038
600038
E00038
E00038
E00038
E00030
E00070
600070
7000E0
7801E0
3C03C0
1F0F80
0FFE00
03F800
ENDCHAR

STARTCHAR oacute
ENCODING 243
SWIDTH 655 0
DWIDTH 25 0
BBX 21 30 1 0
BITMAP
0007C0
000700
000E00
001C00
003800
007000
000000
000000
000000
00FE00
03FF80
0F83C0
1E00E0
3C0070
380070
700038
700038
600038
E00038
E00038
E00038
E00030
E00070
600070
7000E0
7801E0
3C03C0
1F0F80
0FFE00
03F800
ENDCHAR

STARTCHAR ocircumflex
ENCODING 244
SWIDTH 655 0
DWIDTH 25 0
BBX 21 29 1 0
BITMAP
003C00
007E00
00E700
01C380
0781C0
000000
000000
000000
00FE00
03FF80
0F83C0
1E00E0
3C0070
380070
700038
700038
600038
E00038
E00038
E00038
E00030
E00070
600070
7000E0
7801E0
3C03C0
1F0F80
0FFE00
03F800
ENDCHAR

STARTCHAR otilde
ENCODING 245
SWIDTH 655 0
DWIDTH 25 0
BBX 21 28 1 0
BITMAP
01F0C0
07FFE0
031F80
000000
000000
000000
000000
00FE00
03FF80
0F83C0
1E00E0
3C0070
380070
700038
700038
600038
E00038
E00038
E00038
E00030
E00070
600070
7000E0
7801E0
3C03C0
1F0F80
0FFE00
03F800
ENDCHAR

STARTCHAR odieresis
ENCODING 246
SWIDTH 655 0
DWIDTH 25 0
BBX 21 28 1 0
BITMAP
01C1C0
03C3C0
03C3C0
018380
000000
000000
000000
01FE00
07FF80
0F83C0
1E00E0
380070
380070
700038
600038
600038
E00038
E00038
E00038
E00030
E00070
600070
7000E0
7001E0
3803C0
1E0F80
0FFE00
07F800
ENDCHAR

STARTCHAR divide
ENCODING 247
SWIDTH 606 0
DWIDTH 23 0
BBX 18 18 3 4
BITMAP
01E000
01E000
01E000
01E000
000000
000000
000000
FFFFC0
FFFFC0
FFFFC0
000000
000000
000000
000000
01E000
01E000
01E000
01E000
ENDCHAR

STARTCHAR oslash
ENCODING 248
SWIDTH 653 0
DWIDTH 25 0
BBX 21 24 1 -2
BITMAP
000010
00FE38
03FFF0
0F83E0
1E01E0
3C03F0
3803B0
700730
700E38
601C38
E03838
E07838
E0F038
E0E030
E1C070
638070
7700E0
7F01E0
3C03C0
1F0F80
3FFE00
F3F800
600000
200000
ENDCHAR

STARTCHAR ugrave
ENCODING 249
SWIDTH 608 0
DWIDTH 23 0
BBX 19 30 2 0
BITMAP
03C000
01E000
00F000
007000
003800
000000
000000
000000
000000
7000E0
7000C0
7000C0
6000C0
6001C0
6001C0
E001C0
E001C0
E00180
E00180
E00180
C00380
C00380
C00380
C00300
E00700
E00700
700E00
3C7C00
1FF800
0FE000
ENDCHAR

STARTCHAR uacute
ENCODING 250
SWIDTH 608 0
DWIDTH 23 0
BBX 19 30 2 0
BITMAP
000F80
001E00
003C00
007800
00E000
000000
000000
000000
000000
7000E0
7000C0
7000C0
6000C0
6001C0
6001C0
E001C0
E001C0
E00180
E00180
E00180
C00380
C00380
C00380
C00300
E00700
E00700
700E00
3C7C00
1FF800
0FE000
ENDCHAR

STARTCHAR ucircumflex
ENCODING 251
SWIDTH 608 0
DWIDTH 23 0
BBX 19 29 2 0
BITMAP
007800
00FC00
03CE00
0F0780
000000
000000
000000
000000
7000E0
7000C0
7000C0
6000C0
6001C0
6001C0
E001C0
E001C0
E00180
E00180
E00180
C00380
C00380
C00380
C00300
E00700
E00700
700E00
3C7C00
1FF800
0FE000
ENDCHAR

STARTCHAR udieresis
ENCODING 252
SWIDTH 608 0
DWIDTH 23 0
BBX 19 29 2 0
BITMAP
038380
078780
078780
070700
000000
000000
000000
000000
7000E0
7000E0
7000E0
6000E0
6000C0
6000C0
E000C0
E001C0
E001C0
E001C0
E001C0
C00180
C00180
C00180
C00380
E00300
E00700
700F00
3C3E00
1FFC00
0FF000
ENDCHAR

STARTCHAR dotlessi
ENCODING 253
SWIDTH 200 0
DWIDTH 8 0
BBX 6 21 0 0
BITMAP
1C
18
18
18
38
38
38
38
30
30
30
30
70
70
70
70
60
60
60
E0
E0
ENDCHAR

STARTCHAR scedilla
ENCODING 254
SWIDTH 388 0
DWIDTH 15 0
BBX 14 28 -1 -7
BITMAP
07E0
0FF8
1E7C
1818
3808
3800
1800
1C00
0F00
0780
03C0
00E0
0070
0038
0038
0038
4038
E070
78F0
3FE0
1FC0
0600
0600
0780
0780
0180
2780
7E00
ENDCHAR

STARTCHAR ydieresis
ENCODING 255
SWIDTH 536 0
DWIDTH 20 0
BBX 20 36 0 -7
BITMAP
01C1C0
03C3C0
03C3C0
038380
000000
000000
000000
000000
E00070
700060
7000E0
3001C0
3801C0
380380
180380
1C0700
1C0E00
0C0E00
0E1C00
0E3C00
063800
077000
077000
03E000
03E000
01C000
038000
038000
070000
070000
0E0000
1C0000
1C0000
380000
380000
700000
ENDCHAR
ENDFONT
